<svg id="Layer_1" data-name="Layer 1" xmlns="http://www.w3.org/2000/svg" viewBox="0 0 2600 980"><defs><style>.cls-1{fill:#999;}</style></defs><title>atraxmantis_logo</title><path class="cls-1" d="M491.66,353.08c-18.57,2.39-29.25,11.59-28.35,33,1.26,30.12,5.41,60.11,7.62,90.21,0.62,8.34,1.15,18-2.35,25.11-15.34,31-22.24,70.46,2.39,96.48,4.92,5.19,8.47,3.6,5.18,5.95-61.27,43.72-113.44,90.23-160.94,139.69-1.18-1.09-15.59,5.71-16.77,4.62A194.32,194.32,0,0,1,324.62,716c67.49-65.38,95.92-144.71,86.09-238-0.53-5-.78-10.07-1.18-15.11-1.8-22.89-8.27-46.43,10.4-66.29,2.17-2.31,1.94-6.89,2.85-10.55l-66.83-6.21c-4.75,51.39-9.7,102.14-13.94,153-1.08,12.92-4.89,20.53-17.69,27.45-14.38,7.77-23.77,24.32-37.67,33.51-24.75,16.36-18,34.09-10.86,57.25,9.91,32.1,17,66.16,18.12,99.62,1.27,38-22.71,66.38-52.6,87.49-27.18,19.19-58.79,10.93-78.1-22.71-11.52-20.07-16.5-44.22-22.47-67-5.84-22.34-11.86-54.27-15.58-77.09-1-6.07,2-4.84,5.12-9.92,17.61-28.73,18.12-58.4,7-89.13-5.36-14.8-10.66-29.65-16.71-44.18-6-14.32-12.83-28.26-19.94-43.76,33.94,18.23,76.54,89.76,96.1,162.87-1.78-.53-7.49-5-9.26-5.54-3.16,8.31-8.64,16.51-9,25-1.07,22.68,7,45.06,25,57.25,5.88,4,10.62,4.74,14.41,4.23,8.77-1.18,16.26-12,17.15-20,2.38-21.37-3.81-44.06-12.09-63.56-20.41-48.08-47.59-93.43-66.05-142.16-29.13-76.88-26.79-156.85-13.36-237.07C155.59,193,194.65,136.67,245.9,83.65c13.67,20.76,26.53,40.1,39.1,59.63,1.53,2.38,3.11,7,2,8.5-12.57,16.46,1.59,28.46,6.74,41.65,15.54,39.82,32.57,79.09,47.09,119.28,8.5,23.52,28.31,35.12,53,26.84,31.29-10.48,39.86-22.64,32.15-54.44-14.63-60.38-48-110.75-90.46-154.9-23-23.9-48.87-45-72.55-68.64C345.68,105.47,406,179.62,485.17,226.24l-5.91,53.47c23.4-29.58,54.13-40.22,90.12-49-4.66,7-6.51,11.13-9.54,14.07-28.71,27.77-34.39,61.85-28,99.47,4.32,25.52,8.58,51.06,12.46,76.65,3.58,23.66,3.49,47.08-7.9,75.3-3.94-15.48-5.62-26-9.28-35.68-9.27-24.61-20-48.68-28.95-73.39C494.52,377.1,494,366,491.66,353.08Zm-302,69.18c24.46-11.18,40.32-10.87,66.13-4.82,10.41,2.44,19.82,8.24,30,11.65,2.94,1,7-.27,10.11-1.61,1-.44,1.5-5.85.55-6.48-16-10.65-6.12-26.57-8.52-39.91-2.65-14.69-.62-34.94-9.48-42.78C261,323,238.85,309.83,213.06,314.38c-5.93,1-13.89,8.25-15.39,14.06-22,84.78-3.38,163.48,38,238.24,7.4,13.36,16.63,25.71,26.47,40.76,14.55-47.94,10.89-93.94-17.25-134,21.49-1.21,7.55-15-1.51-24.82-8.66-9.43-15.33-12.26-25.73-17C202.24,424.67,205,426.18,189.61,422.26Zm87.25-119-39.11-83.12L230,221l-29.36,75.51Z"/><path class="cls-1" d="M1151.65,344.21c-0.92-4.13,3.28-11.24-8.43-24.81-19.59-22.73-7.65-78.07-12.24-94.37-5.56-19.76-12.65-39.09-19-58.5,31.71,30.73,62.9,60.91,94,91.2,1.69,1.65,4.06,4.68,3.55,6.22-10.31,30.93,10.7,53,23.45,76.13,14.52,26.38,33.86,50.11,51.16,75,4.22,6.05,8.65,12,13.59,18.76-27,1.7-46.45-8.61-68.89-21.69-4.27-2.49,11,1.07,5.7-6.05-4.8-6.4-17-13.85-24.88-22.36V639.81c7.88-8.65,22-16.26,27-26.07,1.44-2.88,2.49-7-.14-8.89s-14.82,3.67-13,1.11c10.05-14.19,25.21-37.22,40.45-50.25,0,27.33.09,54.67-.13,82a14,14,0,0,1-3,8.31c-36.62,43.18-73.41,86.21-109.47,128.45,0-30.39,2.27-45.33-5.35-65.66-5.84-15.58-11.13-37.94-12.15-40.33-0.55-1.28,3.07,2.1,6.27,4.91,5.47,4.78,11.18-.87,11.18-3.25"/><path class="cls-1" d="M663.58,507.43l50.9-11.72c1.89,13,7.56,28.68,5.64,43.43-4.1,31.65-6.29,62.85-23.38,93.3-12.3,21.92-10.07,53.87-8.69,81.06,1.39,27.39,9.77,54.42,15,81.62,0.88,4.56,1.38,9.19,2.73,18.38-39.21-62-61.62-122.44-39.49-191.84,2.86-9,6.84-18.82,5.58-27.57-1.45-10.08-8.16-19.4-12.59-29.05l-24.52,16.62c-24.93-.76-29.82,6.22-20.26,36.77,1.47,4.7,4,10.43,2.54,14.47-20,56.76-38.56,114.74-101.37,143.15,30.64-58,44.55-120.18,56.94-182.78l-4.52-3.64L501.55,636.2c-14.75-11.33-17.77-21.78-12.06-39.7,7.47-23.44,8.55-49.08,11-73.91,2-20.28.83-41.21,21.72-56.62-2.83,16-6.46,29.28-7.3,42.76-1.76,28.22,17.57,39.92,42.7,27.91,16-7.63,24.59-17.34,22.4-36.35-6.57-56.85-11.19-113.93-18.61-170.66-2.43-18.59-7-19.69-24.68-20.64,20.51-52,58-90.77,96.92-129.64-3,8.07-6,16.17-9.12,24.22-3.18,8.24-7.94,16.17-9.43,24.68-4,23.19-8.17,46.55-9.44,70-0.89,16.43,23.32,33.37,41.23,30.64,9.84-1.49,19.36-5,29.22-7.73,28.35,33.5,28.35,33.5,64.94,15.34,2.16,36.29-2.22,69.23-25.81,97.85-4.86,5.89-10.64,14.5-9.75,21,2.63,19.08-6.06,27.5-22.52,32.82-7.85,2.54-14.79,7.86-22.15,11.92Zm-40.15-91.29v65.54c5.47-5.2,7.86-7.12,9.82-9.4,17.5-20.31,16.37-28.84-4.69-45.47C625.38,424.3,624.61,418.74,623.43,416.15Z"/><path class="cls-1" d="M775,575.8c4.78,34.79,9.5,69.6,14.41,104.37,0.85,6,2.49,12,4.22,20.11-32.19-34-52.61-123.75-52.13-227.52l-13,23.55c4.72-57.15,15.13-107.69,34.77-156.21,3.31-8.18,6.69-16.33,10.31-24.38,10.82-24.06,25-47.42,11.37-76.29l7.47-1.44,84,159.65c12.82-40.12,13.83-79.26,5.1-120,18.09,1.16,27.94,8.28,31.59,24,6.15,26.41,14,52.5,18.55,79.17,1.12,6.63,1.37,33.25-.94,26.53-3.3-9.63-7.23,5.64-7.43,11.56-1,28.36-8,71.44-3.1,98.85,0.89,4.95,13.09-20.46,9.87,3.78-4.33,32.56-18.34,54.62-34.36,81-11.92,19.62-25.39,38.3-38.16,57.41L853,658c3.48-26.43,8.7-52.78,9.93-79.31,1.2-25.93-1.67-52.05-2.73-77.44C830,527.67,802.44,551.87,774.9,576c12-30.22,19-60.91,18.27-93.9-0.64-29.93,9.59-58,21.3-84.35v74l31.18-25.56-31.77-73.63c-3.52,2.57-4.89,3.09-5.44,4.06-1.85,3.29-3,7-5.13,10.09-21.31,31.23-17.32,68-22,102.73C777.46,518,777,547,775,575.8Z"/><path class="cls-1" d="M522.4,639.2c-42.13,53-105.54,104.67-141.82,131.38,7.18-21.93,15.33-38.83,8.05-44.08-13.9-10.86-50.84,12-63,16.09,45.15-45,89.19-83.19,153.45-129.89-8.41,23.26-10,35.31-5.32,38.4C476.58,653.48,489.25,657.79,522.4,639.2Z"/><path class="cls-1" d="M1456.43,669.33c0,2.38,5.72,8,11.18,3.25,3.2-2.8,6.82-6.19,6.27-4.91-1,2.39-6.31,24.75-12.15,40.33-7.62,20.33-5.35,35.26-5.35,65.66-36.06-42.25-72.85-85.28-109.47-128.45a14,14,0,0,1-3-8.31c-0.22-27.33-.13-54.66-0.13-82,15.24,13,30.4,36.06,40.45,50.25,1.82,2.56-10.43-2.95-13-1.11s-1.58,6-.14,8.89c4.9,9.81,19.07,17.41,27,26.07V382.88c-7.89,8.51-20.08,16-24.88,22.36-5.34,7.12,10,3.56,5.7,6.05-22.43,13.09-41.91,23.4-68.89,21.69,4.94-6.8,9.37-12.7,13.59-18.76,17.3-24.84,36.64-48.57,51.16-75,12.75-23.15,33.75-45.2,23.45-76.13-0.51-1.54,1.85-4.57,3.55-6.22,31.09-30.29,62.29-60.48,94-91.2-6.38,19.41-13.48,38.74-19,58.5-4.59,16.3,7.36,71.64-12.24,94.37-11.7,13.58-7.5,20.68-8.43,24.81"/><path class="cls-1" d="M910.06,213.53q15.12,25.55,30.25,51.09C954.81,289,970,313,983.56,337.92c5.12,9.45,4.61,21.94,9.66,31.44,10.85,20.39,23.66,39.75,38.57,64.31,22.16-73.06,29.43-147.61,90-195.64l5,2c-4.06,11.48-8.92,22.74-12,34.47-8.93,33.66-14.18,65.68,3.15,100.57,8.27,16.64,1.26,42.23-2.52,63.09-3.27,18-11.77,35.08-20.38,52-0.43-29.45,9.35-58.85-4-86.12-7.37,26.28-15.2,52.46-21.73,79-1.23,5,1.42,12.05,4.49,16.7,6.42,9.74,14.31,18.5,24.43,31.24l32.45-97.95,4.92,1c-1.6,11.62-3,23.27-4.82,34.87-6.42,41.67-6.46,82.85,6.94,123.5,7.07,21.45,2.05,39.83-19.87,54.16L1041.5,531.68C1005.2,580.11,965,621,911.22,655.36c38.71-150.4,46.75-296-7.73-440.62Zm77.51,236.83-5.11,72C1018.75,488,1014.69,486.89,987.57,450.36Z"/><path class="cls-1" d="M2121.67,584c18.57-2.39,29.25-11.59,28.35-33-1.26-30.12-5.41-60.11-7.62-90.21-0.62-8.34-1.15-18,2.35-25.11,15.34-31,22.24-70.46-2.39-96.48-4.92-5.19-8.47-3.6-5.18-5.95,61.27-43.72,113.44-90.23,160.94-139.69,1.18,1.09,15.59-5.71,16.77-4.62a194.32,194.32,0,0,1-26.16,32.19c-67.49,65.38-95.92,144.71-86.09,238,0.53,5,.78,10.07,1.18,15.11,1.8,22.89,8.27,46.43-10.4,66.29-2.17,2.31-1.94,6.89-2.85,10.55l66.83,6.21c4.75-51.39,9.7-102.14,13.94-153,1.08-12.92,4.89-20.53,17.69-27.45,14.38-7.77,23.77-24.32,37.67-33.51,24.75-16.36,18-34.09,10.86-57.25-9.91-32.1-17-66.16-18.12-99.62-1.27-38,22.71-66.38,52.6-87.49,27.18-19.19,58.79-10.93,78.1,22.71,11.52,20.07,16.5,44.22,22.47,67,5.84,22.34,11.86,54.27,15.58,77.09,1,6.07-2,4.84-5.12,9.92-17.61,28.73-18.12,58.4-7,89.13,5.36,14.8,10.66,29.65,16.71,44.18,6,14.32,12.83,28.26,19.94,43.76-33.94-18.23-76.54-89.76-96.1-162.87,1.78,0.53,7.49,5,9.26,5.54,3.16-8.31,8.64-16.51,9-25,1.07-22.68-7-45.06-25-57.25-5.88-4-10.62-4.74-14.41-4.23-8.77,1.18-16.26,12-17.15,20-2.38,21.37,3.81,44.06,12.09,63.56,20.41,48.08,47.59,93.43,66.05,142.16,29.13,76.88,26.79,156.85,13.36,237.07-12.1,72.26-51.16,128.59-102.4,181.61-13.67-20.76-26.53-40.1-39.1-59.63-1.53-2.38-3.11-7-2-8.5,12.57-16.46-1.59-28.46-6.74-41.65-15.54-39.82-32.57-79.09-47.09-119.28-8.5-23.52-28.31-35.12-53-26.84-31.29,10.48-39.86,22.64-32.15,54.44,14.63,60.38,48,110.75,90.46,154.9,23,23.9,48.87,45,72.55,68.64-82.73-43.9-143.05-118.05-222.22-164.67l5.91-53.47c-23.4,29.58-54.13,40.22-90.12,49,4.66-7,6.51-11.13,9.54-14.07,28.71-27.77,34.39-61.85,28-99.47-4.32-25.52-8.58-51.06-12.46-76.65-3.58-23.66-3.49-47.08,7.9-75.3,3.94,15.48,5.62,26,9.28,35.68,9.27,24.61,20,48.68,28.95,73.39C2118.82,560,2119.33,571.08,2121.67,584Zm302-69.18c-24.46,11.18-40.32,10.87-66.13,4.82-10.41-2.44-19.82-8.24-30-11.65-2.94-1-7,.27-10.11,1.61-1,.44-1.5,5.85-0.55,6.48,16,10.65,6.12,26.57,8.52,39.91,2.65,14.69.62,34.94,9.48,42.78,17.33,15.34,39.53,28.49,65.32,23.94,5.93-1,13.89-8.25,15.39-14.06,22-84.78,3.38-163.48-38-238.24-7.4-13.36-16.63-25.71-26.47-40.76-14.55,47.94-10.89,93.94,17.25,134-21.49,1.21-7.55,15,1.51,24.82,8.66,9.43,15.33,12.26,25.73,17C2411.09,512.39,2408.37,510.87,2423.72,514.8Zm-87.25,119,39.11,83.12,7.79-.85,29.36-75.51Z"/><path class="cls-1" d="M1949.75,429.62l-50.9,11.72c-1.89-13-7.56-28.68-5.64-43.43,4.1-31.65,6.29-62.85,23.38-93.3,12.3-21.92,10.07-53.87,8.69-81.06-1.39-27.39-9.77-54.42-15-81.62-0.88-4.56-1.38-9.19-2.73-18.38,39.21,62,61.62,122.44,39.49,191.84-2.86,9-6.84,18.82-5.58,27.57,1.45,10.08,8.16,19.4,12.59,29.05l24.52-16.62c24.93,0.76,29.82-6.22,20.26-36.77-1.47-4.7-4-10.43-2.54-14.47,20-56.76,38.56-114.74,101.37-143.15-30.64,58-44.55,120.18-56.94,182.78l4.52,3.64,66.55-46.56c14.75,11.33,17.77,21.78,12.06,39.7-7.47,23.44-8.55,49.08-11,73.91-2,20.28-.83,41.21-21.72,56.62,2.83-16,6.46-29.28,7.3-42.76,1.76-28.22-17.57-39.92-42.7-27.91-16,7.63-24.59,17.34-22.4,36.35,6.57,56.85,11.19,113.93,18.61,170.66,2.43,18.59,7,19.69,24.68,20.64-20.51,52-58,90.77-96.92,129.64,3-8.07,6-16.17,9.12-24.22,3.18-8.24,7.94-16.17,9.43-24.68,4-23.19,8.17-46.55,9.44-70,0.89-16.43-23.32-33.37-41.23-30.64-9.84,1.49-19.36,5-29.22,7.73-28.35-33.5-28.35-33.5-64.94-15.34-2.16-36.29,2.22-69.23,25.81-97.85,4.86-5.89,10.64-14.5,9.75-21-2.63-19.08,6.06-27.5,22.52-32.82,7.85-2.54,14.79-7.86,22.15-11.92Zm40.15,91.29V455.38c-5.47,5.2-7.86,7.12-9.82,9.4-17.5,20.31-16.37,28.84,4.69,45.47C1988,512.76,1988.73,518.32,1989.91,520.91Z"/><path class="cls-1" d="M1838.29,361.26c-4.78-34.79-9.5-69.6-14.41-104.37-0.85-6-2.49-12-4.22-20.11,32.19,34,52.61,123.75,52.13,227.52l13-23.55c-4.72,57.15-15.13,107.69-34.77,156.21-3.31,8.18-6.69,16.33-10.31,24.38-10.82,24.06-25,47.42-11.37,76.29l-7.47,1.44-84-159.65c-12.82,40.12-13.83,79.26-5.1,120-18.09-1.16-27.94-8.28-31.59-24-6.15-26.41-14-52.5-18.55-79.17-1.12-6.63-1.37-33.25.94-26.53,3.3,9.63,7.23-5.64,7.43-11.56,1-28.36,8-71.44,3.1-98.85-0.89-4.95-13.09,20.46-9.87-3.78,4.33-32.56,18.34-54.62,34.36-81,11.92-19.62,25.39-38.3,38.16-57.41l4.59,1.91c-3.48,26.43-8.7,52.78-9.93,79.31-1.2,25.93,1.67,52.05,2.73,77.44,30.16-26.45,57.76-50.65,85.29-74.76-12,30.22-19,60.91-18.27,93.9,0.64,29.93-9.59,58-21.3,84.35v-74l-31.18,25.56,31.77,73.63c3.52-2.57,4.89-3.09,5.44-4.06,1.85-3.29,3-7,5.13-10.09,21.31-31.23,17.32-68,22-102.73C1835.87,419.09,1836.33,390.07,1838.29,361.26Z"/><path class="cls-1" d="M2090.93,297.86c42.13-53,105.54-104.67,141.82-131.38-7.18,21.93-15.33,38.83-8.05,44.08,13.9,10.86,50.84-12,63-16.09-45.15,45-89.19,83.19-153.45,129.89,8.41-23.26,10-35.31,5.32-38.4C2136.76,283.57,2124.08,279.27,2090.93,297.86Z"/><path class="cls-1" d="M1703.28,723.53Q1688.16,698,1673,672.44c-14.51-24.39-29.74-48.38-43.25-73.3-5.12-9.45-4.61-21.94-9.66-31.44-10.85-20.39-23.66-39.75-38.57-64.31-22.16,73.06-29.43,147.61-90,195.64l-5-2c4.06-11.48,8.92-22.74,12-34.47,8.93-33.66,14.18-65.68-3.15-100.57-8.27-16.64-1.26-42.23,2.52-63.09,3.27-18,11.77-35.08,20.38-52,0.43,29.45-9.35,58.85,4,86.12,7.37-26.28,15.2-52.46,21.73-79,1.23-5-1.42-12.05-4.49-16.7-6.42-9.74-14.31-18.5-24.43-31.24L1482.65,504l-4.92-1c1.6-11.62,3-23.27,4.82-34.87,6.42-41.67,6.46-82.85-6.94-123.5-7.07-21.45-2.05-39.83,19.87-54.16l76.36,114.88c36.29-48.43,76.46-89.34,130.27-123.67-38.71,150.4-46.75,296,7.73,440.62ZM1625.76,486.7l5.11-72C1594.59,449.07,1598.65,450.16,1625.76,486.7Z"/></svg>